<?xml version="1.0" encoding="utf-8"?>
<!-- Generator: Adobe Illustrator 23.0.3, SVG Export Plug-In . SVG Version: 6.00 Build 0)  -->
<svg version="1.1" id="Capa_1" xmlns="http://www.w3.org/2000/svg" xmlns:xlink="http://www.w3.org/1999/xlink" x="0px" y="0px"
	 viewBox="0 0 940.3 253.9" style="enable-background:new 0 0 940.3 253.9;" xml:space="preserve">
<style type="text/css">
	.st0{fill:#E6E6E6;}
	.st1{fill:none;stroke:#191919;stroke-width:1.76;stroke-opacity:0.1;}
	.st2{opacity:0.4;}
	.st3{opacity:0.2;fill:#121A1B;enable-background:new    ;}
	.st4{fill:none;stroke:#121A1B;stroke-width:3.7;stroke-linecap:round;stroke-linejoin:round;}
	.st5{fill:#2A2A2A;}
	.st6{fill:#242424;fill-opacity:0.5;}
</style>
<title>bpa-bpg-mobile</title>
<path class="st0" d="M507.9,32.5h366.9c15.4,0,27.9,12.5,27.9,27.9v134c0,15.4-12.5,27.9-27.9,27.9H507.9
	c-15.4,0-27.9-12.5-27.9-27.9v-134C479.9,45,492.4,32.5,507.9,32.5z"/>
<path class="st1" d="M507.8,33.6h366.9c14.8,0,26.8,12,26.8,26.8v134c0,14.8-12,26.8-26.8,26.8H507.8c-14.8,0-26.8-12-26.8-26.8
	v-134C481,45.6,493,33.6,507.8,33.6z"/>
<g class="st2">
	<path class="st3" d="M570.8,124.7c8.4,0,15.2-6.8,15.2-15.1c0-8.4-6.8-15.2-15.1-15.2c-8.4,0-15.2,6.8-15.2,15.1c0,0,0,0,0,0
		C555.6,117.9,562.4,124.7,570.8,124.7z"/>
	<path class="st4" d="M570.8,109.6L601,79.2"/>
	<path class="st4" d="M592.2,88.2c-11.8-11.8-31-11.8-42.8,0c-11.8,11.8-11.8,31,0,42.8c11.8,11.8,31,11.8,42.8,0
		c9.1-9.1,11.4-22.9,5.9-34.5"/>
	<path class="st4" d="M581.5,98.9c-5.9-6-15.5-6-21.4-0.1s-6,15.5-0.1,21.4c5.9,6,15.5,6,21.4,0.1c3.1-3.1,4.7-7.3,4.5-11.6"/>
</g>
<path class="st5" d="M633,140.1V77.9H658c3.9-0.1,7.8,0.6,11.4,2c2.8,1.1,5.2,3.1,6.9,5.7c1.6,2.5,2.4,5.3,2.3,8.3
	c0.1,2.2-0.5,4.4-1.5,6.4c-1,1.8-2.3,3.3-4,4.5c-1.8,1.2-3.7,2.1-5.8,2.6v0.6c4.9,0.2,9.3,3,11.7,7.2c1.3,2.4,2,5.1,1.9,7.9
	c0.1,3.1-0.8,6.2-2.5,8.8c-1.8,2.7-4.3,4.8-7.2,6.1c-3.7,1.6-7.7,2.4-11.8,2.2L633,140.1z M646.2,129.3h10.7c3.6,0,6.3-0.7,8-2.1
	c1.7-1.4,2.6-3.5,2.5-5.6c0.1-3.3-1.8-6.3-4.8-7.6c-1.7-0.8-3.6-1.2-5.5-1.1h-11L646.2,129.3z M646.2,103.9h9.8
	c1.6,0,3.3-0.3,4.8-0.9c1.3-0.6,2.5-1.5,3.3-2.7c0.9-1.2,1.3-2.7,1.3-4.2c0.1-2.1-0.8-4.1-2.4-5.5c-1.9-1.5-4.3-2.2-6.7-2.1h-10
	V103.9z M687.9,140.1V77.9h24.5c4.2-0.1,8.3,0.8,12.1,2.7c3.2,1.7,5.9,4.3,7.6,7.4c3.5,6.9,3.5,15,0,21.9c-1.8,3.2-4.5,5.7-7.7,7.4
	c-3.8,1.9-8,2.8-12.2,2.6h-15.7v-10.5H710c2.2,0.1,4.3-0.4,6.3-1.3c1.6-0.8,2.9-2.1,3.7-3.7c0.9-1.7,1.3-3.6,1.2-5.5
	c0.1-1.9-0.4-3.8-1.2-5.5c-0.8-1.6-2.1-2.8-3.7-3.6c-2-0.9-4.1-1.4-6.3-1.3h-8.9v51.5L687.9,140.1z M782.8,98
	c-0.4-1.4-1-2.7-1.8-3.9c-0.7-1.1-1.7-2.1-2.8-2.9c-1.1-0.8-2.4-1.5-3.8-1.9c-1.5-0.4-3.1-0.6-4.6-0.6c-3-0.1-5.9,0.8-8.4,2.4
	c-2.5,1.7-4.4,4.1-5.6,6.9c-1.4,3.5-2.1,7.2-2,11c-0.1,3.8,0.6,7.5,2,11c1.1,2.8,3.1,5.3,5.6,7c2.5,1.6,5.5,2.4,8.5,2.4
	c2.6,0.1,5.2-0.5,7.6-1.6c2-1,3.7-2.6,4.8-4.5c1.2-2.1,1.8-4.5,1.7-6.9l2.7,0.4h-16.1v-9.9h26v7.9c0.1,4.9-1,9.8-3.4,14
	c-2.3,3.8-5.6,7-9.5,9c-9.3,4.4-20.2,4.2-29.3-0.7c-4.4-2.6-8-6.4-10.3-11c-2.6-5.3-3.8-11.1-3.7-17c-0.1-4.6,0.7-9.2,2.2-13.5
	c1.4-3.8,3.5-7.2,6.3-10.1c2.6-2.7,5.8-4.9,9.3-6.3c6.8-2.6,14.3-2.9,21.3-0.6c2.9,1,5.7,2.4,8.1,4.4c2.3,1.8,4.3,4.1,5.8,6.7
	c1.5,2.6,2.5,5.5,2.9,8.4L782.8,98z"/>
<path class="st6" d="M532.3,180.3v-17.6h6.5c1.1,0,2.1,0.2,3.1,0.6c0.8,0.4,1.4,0.9,1.8,1.7c0.4,0.7,0.6,1.5,0.6,2.4
	c0,0.6-0.1,1.3-0.4,1.9c-0.2,0.5-0.6,0.9-1.1,1.2c-0.5,0.3-1,0.5-1.5,0.7v0.2c0.6,0,1.2,0.2,1.7,0.6c0.6,0.4,1.1,0.9,1.4,1.5
	c0.4,0.7,0.6,1.5,0.5,2.3c0,0.9-0.2,1.7-0.6,2.4c-0.5,0.7-1.1,1.3-1.9,1.7c-1.1,0.4-2.2,0.7-3.4,0.6L532.3,180.3z M535,178.1h3.8
	c1,0.1,1.9-0.2,2.7-0.8c0.5-0.5,0.8-1.1,0.8-1.9c0-1.1-0.6-2.1-1.6-2.6c-0.6-0.3-1.2-0.4-1.8-0.4H535V178.1z M535,170.3h3.6
	c0.6,0,1.1-0.1,1.6-0.4c0.5-0.2,0.9-0.6,1.1-1c0.3-0.4,0.4-1,0.4-1.5c0-0.7-0.3-1.4-0.8-1.8c-0.7-0.5-1.5-0.8-2.4-0.7H535V170.3z
	 M555.9,174.9v-7.8h2.6v13.2h-2.5v-2.3h-0.1c-0.3,0.7-0.8,1.3-1.5,1.8c-0.7,0.5-1.6,0.7-2.5,0.7c-0.8,0-1.6-0.2-2.3-0.6
	c-0.7-0.4-1.2-1-1.5-1.7c-0.4-0.9-0.6-1.8-0.5-2.8v-8.4h2.6v8.1c-0.1,0.8,0.2,1.6,0.8,2.2c0.5,0.6,1.2,0.8,2,0.8
	c0.5,0,1-0.1,1.4-0.4c0.5-0.2,0.9-0.6,1.2-1.1C555.8,176.2,556,175.5,555.9,174.9L555.9,174.9z M567.2,180.6c-1.2,0-2.4-0.2-3.4-0.8
	c-0.9-0.6-1.7-1.4-2.2-2.4c-1-2.3-1-4.9,0-7.2c1-2.1,3.1-3.3,5.4-3.3c0.7,0,1.5,0.1,2.2,0.4c0.7,0.3,1.3,0.7,1.9,1.2
	c0.6,0.6,1,1.3,1.3,2.1c0.3,1,0.5,2,0.5,3.1v0.9h-10.5v-1.9h8c0-0.6-0.1-1.3-0.4-1.8c-0.3-0.5-0.7-1-1.2-1.3
	c-1.1-0.6-2.5-0.6-3.6,0.1c-0.5,0.3-1,0.8-1.3,1.4c-0.3,0.6-0.4,1.2-0.4,1.9v1.5c0,0.8,0.1,1.6,0.5,2.3c0.3,0.6,0.7,1.1,1.3,1.4
	c0.6,0.3,1.3,0.5,2,0.5c0.5,0,0.9-0.1,1.3-0.2c0.4-0.1,0.7-0.4,1-0.6c0.3-0.3,0.5-0.7,0.7-1.1l2.4,0.5c-0.2,0.7-0.6,1.4-1.1,1.9
	c-0.5,0.6-1.2,1-1.9,1.3C568.9,180.5,568,180.6,567.2,180.6z M577.8,172.5v7.9h-2.6v-13.2h2.5v2.2h0.2c0.3-0.7,0.8-1.3,1.4-1.7
	c0.8-0.4,1.6-0.7,2.5-0.6c0.8,0,1.6,0.2,2.4,0.6c0.7,0.4,1.2,1,1.6,1.7c0.4,0.9,0.6,1.8,0.6,2.7v8.4h-2.6v-8.2
	c0-0.8-0.2-1.6-0.8-2.3c-0.5-0.6-1.3-0.9-2.1-0.8c-0.6,0-1.1,0.1-1.6,0.4c-0.5,0.3-0.8,0.6-1.1,1.1
	C577.9,171.2,577.8,171.8,577.8,172.5L577.8,172.5z M593.1,180.6c-0.8,0-1.6-0.1-2.3-0.5c-0.7-0.3-1.2-0.8-1.6-1.4
	c-0.4-0.7-0.6-1.4-0.6-2.2c0-0.6,0.1-1.3,0.4-1.8c0.3-0.5,0.7-0.8,1.2-1.1c0.5-0.3,1.1-0.5,1.6-0.6c0.6-0.1,1.2-0.3,1.8-0.3l1.9-0.2
	c0.4,0,0.7-0.1,1.1-0.3c0.2-0.1,0.3-0.4,0.3-0.7v-0.1c0-0.6-0.2-1.3-0.6-1.7c-0.5-0.5-1.2-0.7-1.9-0.6c-0.7,0-1.4,0.2-2,0.6
	c-0.4,0.3-0.8,0.8-1,1.3l-2.4-0.5c0.3-0.7,0.7-1.4,1.3-2c0.6-0.5,1.2-0.9,1.9-1.1c0.7-0.2,1.5-0.3,2.3-0.4c0.6,0,1.1,0.1,1.7,0.2
	c0.6,0.1,1.2,0.3,1.7,0.7c0.5,0.3,1,0.8,1.3,1.4c0.4,0.7,0.5,1.5,0.5,2.4v8.8h-2.5v-1.9h-0.1c-0.2,0.4-0.4,0.7-0.8,1
	c-0.4,0.3-0.8,0.6-1.3,0.8C594.4,180.5,593.8,180.6,593.1,180.6z M593.7,178.6c0.6,0,1.3-0.1,1.8-0.4c0.5-0.3,0.9-0.6,1.2-1.1
	c0.3-0.4,0.4-1,0.4-1.5v-1.7c-0.2,0.1-0.3,0.2-0.5,0.3c-0.3,0.1-0.6,0.1-0.9,0.2l-1,0.1l-0.8,0.1c-0.5,0.1-0.9,0.2-1.4,0.3
	c-0.4,0.1-0.7,0.3-1,0.6c-0.3,0.3-0.4,0.7-0.4,1.1c0,0.6,0.2,1.1,0.7,1.5C592.3,178.4,593,178.6,593.7,178.6L593.7,178.6z
	 M612.5,170.3l-2.3,0.4c-0.1-0.3-0.3-0.6-0.5-0.9c-0.2-0.3-0.5-0.5-0.9-0.7c-0.4-0.2-0.9-0.3-1.3-0.3c-0.6,0-1.3,0.1-1.8,0.5
	c-0.5,0.3-0.7,0.7-0.7,1.3c0,0.4,0.2,0.8,0.5,1.1c0.5,0.3,1,0.6,1.6,0.7l2.1,0.5c1,0.2,2,0.6,2.7,1.3c0.6,0.6,0.9,1.4,0.9,2.3
	c0,0.8-0.2,1.5-0.7,2.1c-0.5,0.7-1.2,1.2-1.9,1.5c-0.9,0.4-1.8,0.5-2.8,0.5c-1.3,0.1-2.5-0.3-3.6-0.9c-0.9-0.6-1.6-1.6-1.7-2.7
	l2.5-0.4c0.1,0.6,0.4,1.1,1,1.5c0.6,0.4,1.2,0.5,1.9,0.5c0.7,0,1.4-0.1,2-0.5c0.5-0.3,0.7-0.8,0.8-1.3c0-0.4-0.2-0.8-0.5-1.1
	c-0.4-0.3-0.9-0.5-1.4-0.6l-2.2-0.5c-1-0.2-2-0.6-2.7-1.3c-0.6-0.6-0.9-1.5-0.9-2.3c0-0.7,0.2-1.5,0.7-2c0.5-0.6,1.1-1.1,1.8-1.4
	c0.8-0.3,1.7-0.5,2.7-0.5c1.2-0.1,2.4,0.3,3.4,0.9C611.7,168.4,612.2,169.3,612.5,170.3L612.5,170.3z M621.2,180.3v-17.7h6.3
	c1.2,0,2.4,0.2,3.4,0.8c0.9,0.5,1.6,1.2,2,2c0.9,1.8,0.9,4,0,5.9c-0.4,0.9-1.1,1.6-2,2c-1.1,0.5-2.2,0.8-3.4,0.8h-4.4v-2.2h4.1
	c0.7,0,1.5-0.1,2.1-0.5c0.5-0.3,0.9-0.7,1.2-1.2c0.5-1.1,0.5-2.4,0-3.5c-0.3-0.5-0.7-1-1.2-1.2c-0.7-0.3-1.4-0.5-2.2-0.4h-3.4v15.4
	L621.2,180.3z M636.1,180.3v-13.2h2.5v2.1h0.1c0.2-0.7,0.7-1.3,1.3-1.7c0.6-0.4,1.3-0.6,2.1-0.6h1.1v2.5c-0.2,0-0.4-0.1-0.5-0.1
	c-0.3,0-0.5,0-0.8,0c-0.6,0-1.1,0.1-1.6,0.4c-0.5,0.3-0.8,0.6-1.1,1.1c-0.3,0.5-0.4,1-0.4,1.5v8.1L636.1,180.3z M648.7,180.6
	c-0.8,0-1.6-0.1-2.3-0.5c-1.4-0.6-2.3-2-2.2-3.6c0-0.6,0.1-1.3,0.4-1.8c0.3-0.5,0.7-0.8,1.2-1.1c0.5-0.3,1.1-0.5,1.6-0.6
	c0.6-0.1,1.2-0.3,1.8-0.3l1.9-0.2c0.4,0,0.7-0.1,1.1-0.3c0.2-0.2,0.3-0.4,0.3-0.7v-0.1c0-0.6-0.2-1.3-0.6-1.7
	c-0.5-0.5-1.2-0.7-1.9-0.6c-0.7,0-1.4,0.2-2,0.6c-0.4,0.3-0.8,0.8-1,1.3l-2.4-0.5c0.2-0.7,0.7-1.4,1.3-2c0.6-0.5,1.2-0.9,1.9-1.1
	c0.7-0.2,1.5-0.3,2.3-0.4c0.6,0,1.1,0.1,1.7,0.2c0.6,0.1,1.2,0.3,1.7,0.7c0.5,0.3,1,0.8,1.3,1.4c0.4,0.7,0.5,1.5,0.5,2.4v8.8h-2.5
	v-1.9h-0.1c-0.2,0.4-0.4,0.7-0.8,1c-0.4,0.3-0.8,0.6-1.3,0.8C650,180.5,649.3,180.6,648.7,180.6L648.7,180.6z M649.2,178.6
	c0.6,0,1.3-0.1,1.8-0.4c0.5-0.3,0.9-0.6,1.2-1.1c0.3-0.4,0.4-1,0.4-1.5v-1.7c-0.2,0.1-0.3,0.2-0.5,0.3c-0.3,0.1-0.6,0.1-0.9,0.2
	l-1,0.1l-0.8,0.1c-0.5,0.1-0.9,0.2-1.4,0.3c-0.4,0.1-0.7,0.4-1,0.6c-0.3,0.3-0.4,0.7-0.4,1.1c0,0.6,0.2,1.1,0.7,1.5
	C647.9,178.4,648.6,178.6,649.2,178.6L649.2,178.6z M649.1,165.4l2-4h2.7l-2.7,4H649.1z M663.7,180.6c-1.1,0-2.3-0.3-3.3-0.9
	c-0.9-0.6-1.7-1.4-2.1-2.4c-1-2.3-1-4.8,0-7.1c1-2.1,3.1-3.4,5.4-3.3c0.9,0,1.8,0.2,2.7,0.6c0.8,0.3,1.4,0.9,1.9,1.5
	c0.5,0.7,0.8,1.5,0.9,2.3h-2.5c-0.2-0.6-0.5-1.2-1-1.6c-0.6-0.5-1.3-0.7-2-0.7c-0.7,0-1.3,0.2-1.9,0.6c-0.6,0.4-1,1-1.2,1.6
	c-0.3,0.8-0.5,1.6-0.4,2.5c0,0.9,0.1,1.7,0.4,2.5c0.3,0.6,0.7,1.2,1.2,1.6c0.6,0.4,1.2,0.6,1.9,0.6c0.5,0,0.9-0.1,1.3-0.3
	c0.4-0.2,0.7-0.5,1-0.9c0.3-0.4,0.5-0.8,0.6-1.2h2.5c-0.1,0.8-0.4,1.6-0.9,2.3c-0.5,0.7-1.1,1.2-1.9,1.6
	C665.5,180.4,664.6,180.6,663.7,180.6L663.7,180.6z M677.6,167.1v2.1h-7.2v-2.1H677.6z M672.3,163.9h2.6v12.5c0,0.4,0.1,0.8,0.2,1.1
	c0.1,0.2,0.3,0.4,0.6,0.5c0.3,0.1,0.5,0.1,0.8,0.1c0.2,0,0.4,0,0.5,0l0.4-0.1l0.5,2.1c-0.2,0.1-0.4,0.1-0.6,0.2
	c-1,0.2-2,0.1-2.9-0.3c-0.6-0.2-1.1-0.7-1.4-1.2c-0.4-0.6-0.6-1.3-0.5-2V163.9z M679.9,180.3v-13.2h2.6v13.2L679.9,180.3z
	 M681.2,165.1c-0.4,0-0.8-0.2-1.2-0.5c-0.3-0.3-0.5-0.7-0.5-1.1c0-0.4,0.2-0.8,0.5-1.1c0.3-0.3,0.7-0.5,1.2-0.5
	c0.4,0,0.8,0.2,1.1,0.5c0.3,0.3,0.5,0.7,0.5,1.1c0,0.4-0.2,0.8-0.5,1.1C682.1,164.9,681.7,165.1,681.2,165.1L681.2,165.1z
	 M691,180.6c-1.1,0-2.3-0.3-3.3-0.9c-0.9-0.6-1.6-1.4-2.1-2.4c-0.5-1.1-0.8-2.3-0.8-3.5c0-1.2,0.2-2.4,0.8-3.5
	c0.5-1,1.2-1.8,2.2-2.4c1-0.6,2.1-0.9,3.3-0.9c0.9,0,1.8,0.2,2.7,0.6c0.8,0.3,1.4,0.9,1.9,1.5c0.5,0.7,0.8,1.5,0.9,2.4h-2.5
	c-0.2-0.6-0.5-1.2-1-1.6c-0.6-0.5-1.3-0.7-2-0.7c-0.7,0-1.3,0.2-1.9,0.6c-0.6,0.4-1,1-1.3,1.6c-0.3,0.8-0.5,1.6-0.5,2.5
	c0,0.9,0.1,1.7,0.4,2.5c0.3,0.6,0.7,1.2,1.2,1.6c0.5,0.4,1.2,0.6,1.8,0.6c0.5,0,0.9-0.1,1.3-0.3c0.4-0.2,0.7-0.4,1-0.8
	c0.3-0.4,0.5-0.8,0.6-1.2h2.5c-0.1,0.8-0.4,1.6-0.8,2.3c-0.5,0.7-1.1,1.2-1.9,1.6C692.9,180.4,692,180.6,691,180.6L691,180.6z
	 M702.6,180.6c-0.8,0-1.6-0.1-2.3-0.5c-0.7-0.3-1.2-0.8-1.6-1.4c-0.4-0.7-0.6-1.4-0.6-2.2c0-0.6,0.1-1.3,0.4-1.8
	c0.3-0.5,0.7-0.8,1.2-1.1c0.5-0.3,1.1-0.5,1.6-0.6c0.6-0.1,1.2-0.2,1.8-0.3l1.9-0.2c0.4,0,0.7-0.1,1.1-0.3c0.2-0.1,0.4-0.4,0.3-0.7
	v-0.1c0-0.6-0.2-1.3-0.6-1.7c-0.5-0.5-1.2-0.7-1.9-0.6c-0.7,0-1.4,0.2-2,0.6c-0.4,0.3-0.8,0.8-1,1.3l-2.4-0.5c0.3-0.7,0.7-1.4,1.3-2
	c0.6-0.5,1.2-0.9,1.9-1.1c0.7-0.2,1.5-0.3,2.3-0.3c0.6,0,1.1,0.1,1.7,0.2c0.6,0.1,1.2,0.3,1.7,0.7c0.5,0.3,1,0.8,1.3,1.4
	c0.4,0.7,0.5,1.5,0.5,2.4v8.8h-2.5v-1.9h-0.1c-0.2,0.4-0.4,0.7-0.8,1c-0.4,0.3-0.8,0.6-1.3,0.8c-0.6,0.2-1.2,0.3-1.8,0.3
	L702.6,180.6z M703.2,178.6c0.6,0,1.3-0.1,1.8-0.4c1-0.5,1.6-1.5,1.6-2.6v-1.7c-0.2,0.1-0.3,0.2-0.5,0.3c-0.3,0.1-0.6,0.2-0.9,0.2
	l-1,0.1l-0.8,0.1c-0.5,0.1-0.9,0.2-1.4,0.3c-0.4,0.1-0.7,0.3-1,0.6c-0.6,0.8-0.4,1.9,0.4,2.5C701.9,178.4,702.5,178.6,703.2,178.6
	L703.2,178.6z M722,170.3l-2.3,0.4c-0.1-0.3-0.3-0.6-0.5-0.9c-0.2-0.3-0.5-0.5-0.9-0.7c-0.4-0.2-0.9-0.3-1.3-0.3
	c-0.6,0-1.3,0.1-1.8,0.5c-0.5,0.3-0.7,0.7-0.7,1.3c0,0.4,0.2,0.8,0.5,1.1c0.5,0.3,1,0.6,1.6,0.7l2.1,0.5c1,0.2,2,0.6,2.7,1.3
	c0.6,0.6,0.9,1.4,0.9,2.3c0,0.8-0.2,1.5-0.7,2.1c-0.5,0.6-1.2,1.1-1.9,1.5c-0.9,0.4-1.8,0.5-2.8,0.5c-1.3,0.1-2.5-0.3-3.6-1
	c-0.9-0.6-1.5-1.6-1.7-2.7l2.5-0.4c0.1,0.6,0.5,1.1,1,1.5c0.6,0.4,1.2,0.5,1.9,0.5c0.7,0,1.4-0.2,2-0.5c0.5-0.3,0.7-0.8,0.8-1.3
	c0-0.4-0.2-0.8-0.5-1.1c-0.4-0.3-0.9-0.6-1.4-0.6l-2.2-0.5c-1-0.2-2-0.6-2.7-1.3c-0.6-0.6-0.9-1.5-0.9-2.3c0-0.7,0.2-1.4,0.6-2
	c0.5-0.6,1.1-1.1,1.8-1.4c0.8-0.3,1.7-0.5,2.7-0.5c1.2-0.1,2.4,0.3,3.4,0.9C721.3,168.5,721.9,169.4,722,170.3L722,170.3z
	 M742.7,168.3c-0.2-0.5-0.4-1-0.7-1.4c-0.5-0.8-1.4-1.4-2.3-1.8c-0.5-0.2-1.1-0.2-1.6-0.2c-1,0-1.9,0.3-2.7,0.8
	c-0.8,0.6-1.5,1.3-1.9,2.3c-0.9,2.3-0.9,4.9,0,7.2c0.4,0.9,1.1,1.7,1.9,2.3c0.8,0.5,1.8,0.8,2.8,0.8c0.9,0,1.7-0.2,2.5-0.6
	c0.7-0.4,1.3-0.9,1.7-1.6c0.4-0.8,0.6-1.7,0.6-2.5l0.7,0.1h-5v-2.2h7v2c0,1.3-0.3,2.7-0.9,3.9c-0.6,1.1-1.5,1.9-2.6,2.5
	c-2.5,1.3-5.5,1.2-8-0.2c-1.2-0.8-2.2-1.8-2.8-3.1c-0.7-1.5-1-3.2-1-4.8c0-1.3,0.2-2.6,0.6-3.8c0.3-1.1,0.9-2,1.6-2.9
	c0.7-0.8,1.6-1.4,2.5-1.8c1-0.4,2.1-0.6,3.2-0.6c0.9,0,1.8,0.1,2.7,0.4c0.8,0.3,1.5,0.7,2.2,1.2c1.3,1,2.2,2.5,2.5,4.2L742.7,168.3z
	 M752.2,180.6c-0.8,0-1.6-0.1-2.3-0.5c-1.4-0.6-2.3-2-2.2-3.6c0-0.6,0.1-1.3,0.4-1.8c0.3-0.5,0.7-0.8,1.2-1.1
	c0.5-0.3,1.1-0.5,1.6-0.6c0.6-0.1,1.2-0.3,1.8-0.3l1.9-0.2c0.4,0,0.8-0.1,1.1-0.3c0.2-0.2,0.3-0.4,0.3-0.7v-0.1
	c0-0.6-0.2-1.3-0.6-1.8c-0.5-0.4-1.2-0.7-1.9-0.6c-0.7,0-1.4,0.2-2,0.6c-0.4,0.3-0.8,0.8-1,1.3l-2.4-0.5c0.2-0.7,0.7-1.4,1.3-2
	c0.6-0.5,1.2-0.9,1.9-1.1c0.7-0.2,1.5-0.3,2.3-0.4c0.6,0,1.1,0.1,1.7,0.2c0.6,0.1,1.2,0.3,1.7,0.7c0.5,0.3,1,0.8,1.3,1.4
	c0.4,0.7,0.5,1.5,0.5,2.4v8.8h-2.5v-1.8h-0.1c-0.2,0.4-0.4,0.7-0.8,1c-0.4,0.3-0.8,0.6-1.3,0.8C753.5,180.5,752.8,180.6,752.2,180.6
	z M752.7,178.6c0.6,0,1.3-0.1,1.8-0.4c0.5-0.3,0.9-0.6,1.2-1.1c0.3-0.4,0.4-1,0.4-1.5v-1.7c-0.2,0.1-0.3,0.2-0.5,0.3
	c-0.3,0.1-0.6,0.1-0.9,0.2l-1,0.1l-0.8,0.1c-0.5,0.1-0.9,0.2-1.4,0.3c-0.4,0.1-0.7,0.4-1,0.6c-0.3,0.3-0.4,0.7-0.4,1.1
	c0,0.6,0.2,1.1,0.7,1.5C751.5,178.4,752.1,178.6,752.7,178.6L752.7,178.6z M764.2,172.5v7.9h-2.6v-13.2h2.5v2.2h0.1
	c0.3-0.7,0.8-1.3,1.4-1.7c0.7-0.4,1.6-0.7,2.5-0.6c0.8,0,1.6,0.2,2.4,0.6c0.7,0.4,1.2,1,1.6,1.7c0.4,0.9,0.6,1.8,0.6,2.7v8.4h-2.6
	v-8.1c0-0.8-0.2-1.6-0.8-2.3c-0.5-0.6-1.3-0.9-2.1-0.8c-0.6,0-1.1,0.1-1.6,0.4c-0.5,0.3-0.8,0.6-1.1,1.1
	C764.4,171.2,764.2,171.8,764.2,172.5L764.2,172.5z M779.5,180.6c-0.8,0-1.6-0.1-2.3-0.5c-1.4-0.6-2.3-2-2.2-3.6
	c0-0.6,0.1-1.3,0.4-1.8c0.3-0.5,0.7-0.8,1.2-1.1c0.5-0.3,1.1-0.5,1.7-0.7c0.6-0.1,1.2-0.3,1.8-0.3l1.9-0.2c0.4,0,0.8-0.1,1.1-0.3
	c0.2-0.2,0.3-0.4,0.3-0.7v-0.1c0-0.6-0.2-1.3-0.6-1.8c-0.5-0.4-1.2-0.7-1.9-0.6c-0.7,0-1.4,0.2-2,0.6c-0.4,0.3-0.8,0.8-1,1.3
	l-2.4-0.5c0.2-0.7,0.7-1.4,1.3-2c0.6-0.5,1.2-0.9,1.9-1.1c0.7-0.2,1.5-0.3,2.3-0.4c0.6,0,1.1,0.1,1.7,0.2c0.6,0.1,1.2,0.3,1.7,0.7
	c0.5,0.3,1,0.8,1.3,1.4c0.4,0.7,0.5,1.5,0.5,2.4v8.8h-2.5v-1.8h-0.1c-0.2,0.4-0.4,0.7-0.8,1c-0.4,0.3-0.8,0.6-1.3,0.8
	C780.9,180.5,780.3,180.6,779.5,180.6L779.5,180.6z M780.1,178.6c0.6,0,1.3-0.1,1.8-0.4c0.5-0.2,0.9-0.6,1.2-1.1
	c0.3-0.4,0.4-1,0.4-1.5v-1.7c-0.2,0.1-0.3,0.2-0.5,0.3c-0.3,0.1-0.6,0.1-0.9,0.2l-1,0.1l-0.8,0.1c-0.5,0.1-0.9,0.2-1.4,0.3
	c-0.4,0.1-0.7,0.4-1,0.6c-0.3,0.3-0.4,0.7-0.4,1.1c0,0.6,0.2,1.1,0.7,1.5C778.8,178.4,779.4,178.6,780.1,178.6L780.1,178.6z
	 M794,180.6c-1,0-2-0.3-2.9-0.8c-0.9-0.6-1.6-1.4-2-2.4c-1-2.4-1-5,0-7.4c0.4-1,1.1-1.8,2-2.3c0.8-0.6,1.8-0.8,2.8-0.8
	c0.7,0,1.4,0.1,2,0.4c0.5,0.2,0.8,0.6,1.2,1c0.2,0.3,0.5,0.7,0.7,1h0.2v-6.5h2.6v17.6H798v-2h-0.2c-0.2,0.3-0.4,0.7-0.7,1
	c-0.3,0.4-0.7,0.7-1.2,0.9C795.3,180.6,794.6,180.7,794,180.6z M794.5,178.4c0.7,0,1.3-0.2,1.9-0.6c0.5-0.4,0.9-1,1.2-1.6
	c0.3-0.8,0.4-1.6,0.4-2.5c0-0.8-0.1-1.6-0.4-2.4c-0.2-0.6-0.6-1.2-1.2-1.6c-0.6-0.4-1.2-0.6-1.9-0.6c-0.7,0-1.4,0.2-1.9,0.6
	c-0.5,0.4-0.9,1-1.2,1.6c-0.5,1.5-0.5,3.2,0,4.7c0.2,0.7,0.6,1.2,1.2,1.7C793.2,178.3,793.9,178.5,794.5,178.4L794.5,178.4z
	 M809.4,180.6c-1.2,0-2.3-0.3-3.4-0.8c-0.9-0.6-1.7-1.4-2.2-2.4c-1-2.3-1-4.9,0-7.2c1-2.1,3.1-3.3,5.4-3.3c0.7,0,1.5,0.1,2.2,0.4
	c0.7,0.3,1.3,0.7,1.9,1.2c0.6,0.6,1,1.3,1.3,2.1c0.4,1,0.5,2,0.5,3.1v0.9h-10.5v-1.9h8c0-0.6-0.1-1.2-0.4-1.8
	c-0.3-0.5-0.7-1-1.2-1.3c-0.5-0.3-1.1-0.5-1.7-0.5c-0.7,0-1.3,0.2-1.9,0.5c-0.5,0.3-1,0.8-1.2,1.4c-0.3,0.6-0.4,1.2-0.4,1.9v1.5
	c0,0.8,0.1,1.6,0.5,2.3c0.3,0.6,0.8,1.1,1.3,1.4c0.6,0.3,1.3,0.5,2,0.5c0.5,0,0.9-0.1,1.3-0.2c0.4-0.1,0.8-0.4,1.1-0.6
	c0.3-0.3,0.5-0.7,0.7-1.1l2.4,0.5c-0.2,0.7-0.6,1.4-1.1,1.9c-0.5,0.6-1.2,1-1.9,1.3C811.2,180.5,810.3,180.6,809.4,180.6
	L809.4,180.6z M817.5,180.3v-13.2h2.5v2.1h0.1c0.2-0.7,0.7-1.3,1.3-1.7c0.6-0.4,1.3-0.6,2.1-0.6h1.1v2.5c-0.2,0-0.4-0.1-0.6-0.1
	c-0.3,0-0.5,0-0.8,0c-0.6,0-1.1,0.1-1.6,0.4c-1,0.5-1.5,1.5-1.5,2.6v8.1L817.5,180.3z M830.1,180.6c-0.8,0-1.6-0.1-2.3-0.5
	c-0.7-0.3-1.2-0.8-1.6-1.4c-0.4-0.7-0.6-1.4-0.6-2.2c0-0.6,0.1-1.3,0.4-1.8c0.3-0.5,0.7-0.8,1.2-1.1c0.5-0.3,1.1-0.5,1.6-0.6
	c0.6-0.1,1.2-0.2,1.9-0.3l1.9-0.2c0.4,0,0.7-0.1,1.1-0.3c0.2-0.1,0.4-0.4,0.3-0.7v-0.1c0-0.6-0.2-1.3-0.6-1.7
	c-0.5-0.5-1.2-0.7-1.9-0.6c-0.7,0-1.4,0.2-2,0.6c-0.4,0.3-0.8,0.8-1,1.3l-2.4-0.5c0.3-0.7,0.7-1.4,1.3-2c0.6-0.5,1.2-0.9,1.9-1.1
	c0.7-0.2,1.5-0.3,2.3-0.3c0.6,0,1.1,0.1,1.7,0.2c0.6,0.1,1.2,0.3,1.7,0.7c0.5,0.3,0.9,0.8,1.2,1.4c0.4,0.7,0.5,1.5,0.5,2.4v8.8h-2.5
	v-1.9H834c-0.2,0.4-0.4,0.7-0.8,1c-0.4,0.3-0.8,0.6-1.3,0.8C831.3,180.5,830.7,180.6,830.1,180.6L830.1,180.6z M830.6,178.6
	c0.6,0,1.3-0.1,1.8-0.4c0.5-0.2,0.9-0.6,1.2-1.1c0.3-0.4,0.4-1,0.4-1.5v-1.7c-0.2,0.1-0.3,0.2-0.5,0.3c-0.3,0.1-0.6,0.2-0.9,0.2
	l-1,0.1l-0.8,0.1c-0.5,0.1-0.9,0.2-1.4,0.3c-0.4,0.1-0.7,0.3-1,0.6c-0.3,0.3-0.4,0.7-0.4,1.1c0,0.6,0.2,1.1,0.7,1.5
	C829.3,178.4,829.9,178.6,830.6,178.6L830.6,178.6z M849.5,170.3l-2.3,0.4c-0.1-0.3-0.3-0.6-0.5-0.9c-0.2-0.3-0.5-0.5-0.8-0.7
	c-0.4-0.2-0.9-0.3-1.3-0.3c-0.6,0-1.3,0.2-1.8,0.5c-0.5,0.3-0.7,0.7-0.7,1.3c0,0.4,0.2,0.8,0.5,1.1c0.5,0.3,1,0.6,1.6,0.7l2.1,0.5
	c1,0.2,1.9,0.6,2.7,1.3c0.6,0.6,0.9,1.4,0.9,2.3c0,0.8-0.2,1.5-0.7,2.1c-0.5,0.6-1.2,1.1-1.9,1.5c-0.9,0.4-1.8,0.5-2.8,0.5
	c-1.3,0.1-2.5-0.3-3.6-1c-0.9-0.6-1.6-1.6-1.7-2.7l2.5-0.4c0.1,0.6,0.5,1.1,1,1.5c0.6,0.4,1.2,0.5,1.9,0.5c0.7,0,1.4-0.2,2-0.5
	c0.5-0.3,0.7-0.8,0.8-1.3c0-0.4-0.2-0.8-0.5-1.1c-0.4-0.3-0.9-0.6-1.4-0.6l-2.2-0.5c-1-0.2-2-0.6-2.7-1.3c-0.6-0.6-0.9-1.5-0.9-2.3
	c0-0.7,0.2-1.4,0.6-2c0.5-0.6,1.1-1.1,1.8-1.4c0.8-0.3,1.7-0.5,2.7-0.5c1.2-0.1,2.4,0.3,3.4,0.9
	C848.7,168.5,849.3,169.4,849.5,170.3L849.5,170.3z"/>
<path class="st0" d="M65.6,33.3h366.9c15.4,0,27.9,12.5,27.9,27.9v134c0,15.4-12.5,27.9-27.9,27.9H65.6c-15.4,0-27.9-12.5-27.9-27.9
	v-134C37.6,45.8,50.1,33.3,65.6,33.3z"/>
<path class="st1" d="M65.5,34.4h366.9c14.8,0,26.8,12,26.8,26.8v134c0,14.8-12,26.8-26.8,26.8H65.5c-14.8,0-26.8-12-26.8-26.8v-134
	C38.7,46.4,50.7,34.4,65.5,34.4z"/>
<g class="st2">
	<path class="st3" d="M128.5,125.5c8.4,0,15.2-6.8,15.2-15.1s-6.8-15.2-15.1-15.2s-15.2,6.8-15.2,15.1c0,0,0,0,0,0l0,0
		C113.3,118.7,120.1,125.5,128.5,125.5z"/>
	<path class="st4" d="M128.5,110.3L158.8,80"/>
	<path class="st4" d="M149.9,88.9c-11.9-11.8-31-11.7-42.8,0.2s-11.7,31,0.2,42.8c11.9,11.8,31,11.7,42.8-0.2
		c9-9.1,11.3-22.9,5.8-34.4"/>
	<path class="st4" d="M139.2,99.7c-5.9-5.9-15.5-5.9-21.4,0.1c-5.9,5.9-5.9,15.5,0.1,21.4c5.9,5.9,15.5,5.9,21.4-0.1
		c3-3.1,4.6-7.3,4.4-11.6"/>
</g>
<path class="st5" d="M190.8,140.8V78.6h24.9c3.9-0.1,7.8,0.5,11.5,2c2.8,1.2,5.2,3.1,6.9,5.7c1.6,2.5,2.4,5.3,2.3,8.3
	c0.1,2.2-0.5,4.4-1.5,6.4c-0.9,1.8-2.3,3.3-4,4.5c-1.7,1.2-3.7,2-5.8,2.5v0.6c4.9,0.2,9.3,2.9,11.7,7.2c1.4,2.4,2,5.1,1.9,7.9
	c0.1,3.1-0.8,6.2-2.5,8.8c-1.8,2.7-4.3,4.8-7.2,6.1c-3.7,1.6-7.7,2.4-11.8,2.2H190.8z M203.9,130.1h10.8c3.7,0,6.3-0.7,8-2.1
	c1.7-1.4,2.6-3.5,2.5-5.7c0.1-3.3-1.8-6.3-4.8-7.6c-1.7-0.8-3.6-1.2-5.4-1.1h-11V130.1z M203.9,104.6h9.8c1.6,0,3.3-0.3,4.8-0.9
	c1.3-0.6,2.5-1.5,3.3-2.7c0.8-1.2,1.3-2.7,1.2-4.2c0.1-2.1-0.8-4.1-2.4-5.4c-1.9-1.5-4.3-2.2-6.7-2.1h-10L203.9,104.6z M245.6,140.8
	V78.6h24.5c4.2-0.1,8.3,0.8,12.1,2.7c3.2,1.7,5.9,4.3,7.6,7.4c1.8,3.3,2.7,7.1,2.6,10.9c0.1,3.8-0.8,7.6-2.7,10.9
	c-1.8,3.2-4.5,5.7-7.8,7.4c-3.8,1.9-8,2.8-12.2,2.6h-15.7v-10.4h13.5c2.2,0.1,4.3-0.4,6.3-1.3c1.6-0.8,2.9-2.1,3.7-3.7
	c0.9-1.7,1.3-3.6,1.2-5.4c0.1-1.9-0.4-3.8-1.2-5.4c-0.8-1.6-2.1-2.8-3.7-3.6c-2-0.9-4.1-1.4-6.3-1.3h-8.9v51.5L245.6,140.8z
	 M302.8,140.8h-14.1l21.5-62.2h17l21.4,62.2h-14.2l-15.6-47.9h-0.5L302.8,140.8z M301.9,116.4h33.3v10.3h-33.3V116.4z"/>
<path class="st6" d="M90,181.1v-17.6h6.5c1.1,0,2.1,0.2,3.1,0.6c0.8,0.4,1.4,0.9,1.8,1.7c0.4,0.7,0.6,1.5,0.6,2.4
	c0,0.6-0.1,1.3-0.4,1.9c-0.3,0.5-0.6,0.9-1.1,1.2c-0.5,0.3-1,0.5-1.5,0.7v0.2c0.6,0,1.2,0.2,1.7,0.6c0.6,0.4,1.1,0.9,1.4,1.5
	c0.8,1.5,0.7,3.3-0.1,4.8c-0.5,0.8-1.2,1.3-2,1.7c-1.1,0.4-2.2,0.7-3.4,0.6L90,181.1z M92.6,178.8h3.8c1,0.1,2-0.2,2.8-0.8
	c0.5-0.5,0.8-1.1,0.8-1.9c0-0.5-0.1-1.1-0.4-1.5c-0.3-0.5-0.7-0.8-1.2-1.1c-0.6-0.3-1.2-0.4-1.8-0.4h-3.9L92.6,178.8z M92.6,171.1
	h3.6c0.6,0,1.1-0.1,1.6-0.4c0.4-0.2,0.8-0.6,1.1-1c0.3-0.4,0.4-1,0.4-1.5c0-0.7-0.3-1.4-0.8-1.8c-0.7-0.5-1.5-0.8-2.3-0.7h-3.6
	L92.6,171.1z M113.5,175.6v-7.8h2.6v13.2h-2.5v-2.3h-0.1c-0.3,0.7-0.8,1.3-1.5,1.8c-0.7,0.5-1.6,0.7-2.5,0.7c-0.8,0-1.6-0.2-2.3-0.6
	c-0.7-0.4-1.2-1-1.5-1.7c-0.4-0.9-0.6-1.8-0.6-2.8v-8.4h2.6v8.1c-0.1,0.8,0.2,1.6,0.7,2.2c0.5,0.5,1.2,0.8,2,0.8
	c0.5,0,1-0.1,1.4-0.4c0.5-0.3,0.9-0.6,1.2-1.1c0.4-0.6,0.5-1.2,0.5-1.9L113.5,175.6z M124.8,181.4c-1.2,0-2.3-0.3-3.4-0.8
	c-0.9-0.6-1.7-1.4-2.2-2.4c-1-2.3-1-4.9,0-7.2c1-2.1,3.1-3.3,5.4-3.3c0.7,0,1.5,0.1,2.2,0.4c1.5,0.5,2.7,1.7,3.2,3.3
	c0.4,1,0.5,2,0.5,3.1v0.9H120v-1.9h8c0-0.6-0.1-1.3-0.4-1.8c-0.3-0.5-0.7-0.9-1.2-1.2c-0.5-0.3-1.1-0.5-1.7-0.5
	c-0.7,0-1.3,0.2-1.9,0.5c-0.5,0.3-1,0.8-1.3,1.4c-0.3,0.6-0.4,1.2-0.4,1.8v1.5c0,0.8,0.1,1.6,0.5,2.3c0.3,0.6,0.7,1.1,1.3,1.4
	c0.6,0.3,1.3,0.5,2,0.5c0.5,0,0.9-0.1,1.3-0.2c0.4-0.1,0.8-0.4,1.1-0.6c0.3-0.3,0.5-0.7,0.7-1.1l2.4,0.4c-0.2,0.7-0.6,1.4-1.1,1.9
	c-0.5,0.6-1.2,1-1.9,1.3C126.6,181.3,125.7,181.4,124.8,181.4L124.8,181.4z M135.5,173.3v7.9h-2.6v-13.2h2.5v2.2h0.2
	c0.3-0.7,0.8-1.3,1.4-1.7c0.7-0.4,1.6-0.7,2.5-0.6c0.8,0,1.6,0.2,2.4,0.6c0.7,0.4,1.2,1,1.6,1.7c0.4,0.9,0.6,1.8,0.6,2.7v8.4h-2.6
	V173c0-0.8-0.2-1.6-0.7-2.3c-0.5-0.6-1.3-0.9-2.1-0.8c-0.6,0-1.1,0.1-1.6,0.4c-0.5,0.3-0.8,0.6-1.1,1.1
	C135.6,172,135.5,172.6,135.5,173.3L135.5,173.3z M150.7,181.4c-0.8,0-1.6-0.1-2.3-0.5c-0.7-0.3-1.2-0.8-1.6-1.4
	c-0.4-0.7-0.6-1.4-0.6-2.2c0-0.6,0.1-1.3,0.4-1.9c0.3-0.5,0.7-0.8,1.2-1.1c0.5-0.3,1.1-0.5,1.6-0.6c0.6-0.1,1.2-0.2,1.9-0.3l1.9-0.2
	c0.4,0,0.7-0.1,1.1-0.3c0.2-0.1,0.4-0.4,0.3-0.7v-0.1c0-0.6-0.2-1.3-0.6-1.7c-0.5-0.4-1.2-0.7-1.9-0.6c-1.3-0.1-2.6,0.6-3.1,1.8
	l-2.4-0.6c0.2-0.8,0.7-1.4,1.3-2c0.6-0.5,1.2-0.9,1.9-1.1c0.7-0.2,1.5-0.3,2.3-0.3c0.6,0,1.1,0.1,1.7,0.2c0.6,0.1,1.2,0.4,1.7,0.7
	c0.5,0.3,1,0.8,1.3,1.4c0.4,0.7,0.5,1.5,0.5,2.4v8.8h-2.5v-1.8h-0.1c-0.4,0.8-1.1,1.5-2,1.8C152.1,181.3,151.5,181.4,150.7,181.4
	L150.7,181.4z M151.3,179.3c0.6,0,1.3-0.1,1.8-0.4c1-0.5,1.6-1.5,1.6-2.6v-1.7c-0.2,0.1-0.3,0.2-0.5,0.3c-0.3,0.1-0.6,0.2-0.9,0.2
	l-1,0.1l-0.8,0.1c-0.5,0.1-0.9,0.2-1.4,0.3c-0.4,0.1-0.7,0.3-1,0.6c-0.6,0.8-0.4,1.9,0.3,2.5C150,179.2,150.6,179.4,151.3,179.3
	L151.3,179.3z M170.1,171.1l-2.3,0.4c-0.1-0.3-0.3-0.6-0.5-0.9c-0.2-0.3-0.5-0.5-0.8-0.7c-0.4-0.2-0.9-0.3-1.3-0.3
	c-0.6,0-1.3,0.2-1.8,0.5c-0.5,0.3-0.7,0.7-0.7,1.3c0,0.4,0.2,0.8,0.5,1.1c0.5,0.3,1,0.6,1.6,0.7l2.1,0.5c1,0.2,2,0.6,2.7,1.3
	c0.6,0.6,0.9,1.4,0.9,2.3c0,0.8-0.2,1.5-0.7,2.1c-0.5,0.6-1.2,1.1-1.9,1.4c-0.9,0.4-1.9,0.5-2.8,0.5c-1.3,0-2.5-0.3-3.6-1
	c-0.9-0.6-1.6-1.6-1.7-2.7l2.5-0.4c0.1,0.6,0.5,1.1,1,1.5c0.6,0.4,1.2,0.5,1.9,0.5c0.7,0,1.4-0.2,2-0.5c0.5-0.3,0.7-0.8,0.8-1.3
	c0-0.4-0.1-0.8-0.5-1.1c-0.4-0.3-0.9-0.6-1.4-0.6l-2.2-0.5c-1-0.2-2-0.6-2.8-1.3c-1.1-1.2-1.2-3.1-0.2-4.4c0.5-0.6,1.1-1.1,1.8-1.4
	c0.8-0.3,1.7-0.5,2.6-0.5c1.2-0.1,2.4,0.3,3.4,0.9C169.4,169.2,170,170.1,170.1,171.1L170.1,171.1z M178.9,181.1v-17.6h6.4
	c1.2,0,2.4,0.2,3.4,0.8c0.9,0.5,1.5,1.2,2,2.1c0.5,0.9,0.7,1.9,0.7,2.9c0,1-0.2,2-0.7,2.9c-0.4,0.9-1.1,1.6-2,2.1
	c-1.1,0.5-2.2,0.8-3.4,0.8h-4.4v-2.2h4.1c0.7,0,1.5-0.1,2.1-0.4c0.5-0.3,0.9-0.7,1.2-1.2c0.5-1.1,0.5-2.4,0-3.6
	c-0.3-0.5-0.7-1-1.2-1.2c-0.7-0.3-1.4-0.5-2.2-0.4h-3.3v15.4L178.9,181.1z M193.7,181.1v-13.2h2.5v2.1h0.1c0.2-0.7,0.7-1.3,1.3-1.7
	c0.6-0.4,1.3-0.6,2.1-0.6h0.6c0.2,0,0.4,0,0.5,0v2.5c-0.2,0-0.4-0.1-0.6-0.1c-0.3,0-0.5,0-0.8,0c-0.6,0-1.1,0.1-1.6,0.4
	c-0.5,0.3-0.8,0.6-1.1,1.1c-0.3,0.5-0.4,1-0.4,1.5v8.1L193.7,181.1z M206.3,181.4c-0.8,0-1.6-0.1-2.3-0.5c-0.7-0.3-1.2-0.8-1.6-1.4
	c-0.4-0.7-0.6-1.4-0.6-2.2c0-0.6,0.1-1.3,0.4-1.8c0.3-0.5,0.7-0.8,1.2-1.1c0.5-0.3,1.1-0.5,1.6-0.6c0.6-0.1,1.2-0.2,1.8-0.3l1.9-0.2
	c0.4,0,0.7-0.1,1.1-0.3c0.2-0.1,0.4-0.4,0.3-0.7v-0.1c0-0.6-0.2-1.3-0.6-1.7c-0.5-0.4-1.2-0.7-1.9-0.6c-0.7-0.1-1.5,0.2-2.1,0.6
	c-0.4,0.3-0.8,0.8-1,1.3l-2.4-0.6c0.2-0.8,0.7-1.5,1.3-2c0.6-0.5,1.2-0.9,1.9-1.1c0.7-0.2,1.5-0.3,2.3-0.3c0.6,0,1.1,0.1,1.7,0.2
	c0.6,0.1,1.2,0.3,1.7,0.7c0.5,0.3,1,0.8,1.3,1.4c0.4,0.7,0.5,1.5,0.5,2.4v8.8h-2.5v-1.8l0,0c-0.2,0.4-0.4,0.7-0.8,1
	c-0.4,0.3-0.8,0.6-1.3,0.8c-0.6,0.2-1.3,0.3-1.9,0.3L206.3,181.4z M206.8,179.3c0.6,0,1.3-0.1,1.8-0.4c0.5-0.3,0.9-0.6,1.2-1.1
	c0.3-0.4,0.4-1,0.4-1.5v-1.7c-0.2,0.1-0.3,0.2-0.5,0.3c-0.3,0.1-0.6,0.2-0.9,0.2l-1,0.1l-0.8,0.1c-0.5,0.1-0.9,0.2-1.4,0.3
	c-0.4,0.1-0.7,0.3-1,0.6c-0.6,0.8-0.4,1.9,0.4,2.6C205.5,179.2,206.2,179.4,206.8,179.3L206.8,179.3z M206.8,166.1l2-4h2.7l-2.7,4
	H206.8z M221.4,181.4c-1.2,0-2.3-0.3-3.3-0.9c-0.9-0.6-1.7-1.4-2.1-2.4c-1-2.3-1-4.8,0-7.1c1.6-2.9,5.1-4.1,8.1-2.7
	c0.8,0.3,1.4,0.9,1.9,1.5c0.5,0.7,0.8,1.5,0.9,2.4h-2.5c-0.2-0.6-0.5-1.2-1-1.6c-0.6-0.5-1.3-0.7-2-0.7c-0.7,0-1.3,0.2-1.9,0.6
	c-0.5,0.4-0.9,1-1.2,1.6c-0.3,0.8-0.5,1.6-0.4,2.4c0,0.9,0.1,1.7,0.4,2.5c0.2,0.7,0.7,1.2,1.2,1.6c0.6,0.4,1.2,0.6,1.9,0.6
	c0.5,0,0.9-0.1,1.3-0.3c0.4-0.2,0.7-0.4,1-0.8c0.3-0.4,0.5-0.8,0.6-1.2h2.6c-0.2,1.7-1.2,3.1-2.7,3.9
	C223.4,181.2,222.4,181.4,221.4,181.4L221.4,181.4z M235.4,167.9v2.1h-7.2v-2.1H235.4z M230.1,164.7h2.6v12.5c0,0.4,0.1,0.8,0.2,1.1
	c0.1,0.2,0.3,0.4,0.6,0.5c0.3,0.1,0.5,0.1,0.8,0.1h0.6l0.4-0.1l0.5,2.1c-0.2,0.1-0.4,0.1-0.6,0.2c-1,0.2-2,0.1-2.9-0.3
	c-0.6-0.2-1.1-0.7-1.4-1.2c-0.4-0.6-0.6-1.3-0.5-2L230.1,164.7z M237.7,181.1v-13.2h2.6v13.2H237.7z M239,165.9
	c-0.4,0-0.8-0.2-1.1-0.4c-0.6-0.6-0.6-1.5-0.1-2.1c0,0,0,0,0.1-0.1c0.3-0.3,0.7-0.5,1.1-0.5c0.4,0,0.8,0.2,1.2,0.5
	c0.3,0.3,0.5,0.7,0.5,1.1c0,0.4-0.2,0.8-0.5,1.1C239.8,165.7,239.4,165.9,239,165.9L239,165.9z M248.8,181.4c-1.1,0-2.3-0.3-3.3-0.9
	c-0.9-0.6-1.6-1.4-2.1-2.4c-1-2.3-1-4.8,0-7.1c0.5-1,1.2-1.8,2.2-2.4c1.8-1,4-1.2,5.9-0.3c0.8,0.3,1.4,0.9,1.9,1.6
	c0.5,0.7,0.8,1.5,0.9,2.3h-2.6c-0.2-0.6-0.5-1.2-1-1.6c-0.6-0.5-1.3-0.7-2-0.7c-0.7,0-1.3,0.2-1.9,0.6c-0.6,0.4-1,1-1.2,1.6
	c-0.3,0.8-0.5,1.6-0.4,2.4c0,0.9,0.1,1.7,0.4,2.5c0.3,0.6,0.7,1.2,1.2,1.6c0.6,0.4,1.2,0.6,1.9,0.6c0.5,0,0.9-0.1,1.3-0.3
	c0.4-0.2,0.7-0.5,1-0.8c0.3-0.4,0.5-0.8,0.6-1.2h2.5c-0.1,0.8-0.4,1.6-0.8,2.3c-0.5,0.7-1.1,1.2-1.9,1.6
	C250.6,181.2,249.6,181.4,248.8,181.4L248.8,181.4z M260.4,181.4c-0.8,0-1.6-0.1-2.3-0.4c-0.7-0.3-1.2-0.8-1.6-1.4
	c-0.4-0.7-0.6-1.4-0.6-2.2c0-0.6,0.1-1.3,0.4-1.8c0.3-0.5,0.7-0.8,1.2-1.1c0.5-0.3,1.1-0.5,1.6-0.6c0.6-0.1,1.2-0.3,1.9-0.3l1.9-0.2
	c0.4,0,0.7-0.1,1.1-0.3c0.2-0.1,0.4-0.4,0.3-0.7v-0.1c0-0.6-0.2-1.3-0.6-1.7c-0.5-0.5-1.2-0.7-1.9-0.6c-1.3-0.1-2.6,0.6-3.1,1.8
	l-2.4-0.6c0.3-0.7,0.7-1.4,1.3-1.9c0.6-0.5,1.2-0.9,1.9-1.1c0.7-0.2,1.5-0.3,2.3-0.4c0.6,0,1.1,0.1,1.7,0.2c0.6,0.1,1.2,0.3,1.7,0.7
	c0.5,0.3,1,0.8,1.3,1.4c0.4,0.7,0.5,1.5,0.5,2.4v8.8h-2.5v-1.9h-0.1c-0.4,0.8-1.1,1.5-2,1.8C261.7,181.3,261.1,181.4,260.4,181.4
	L260.4,181.4z M261,179.4c0.6,0,1.3-0.1,1.8-0.4c0.5-0.3,0.9-0.7,1.2-1.1c0.3-0.4,0.4-1,0.4-1.5v-1.7c-0.2,0.1-0.3,0.2-0.5,0.3
	c-0.3,0.1-0.6,0.2-0.9,0.2l-1,0.1l-0.8,0.1c-0.5,0.1-0.9,0.2-1.4,0.3c-0.4,0.1-0.7,0.4-1,0.6c-0.6,0.8-0.4,1.9,0.3,2.5
	C259.7,179.2,260.3,179.4,261,179.4L261,179.4z M279.8,171.1l-2.3,0.4c-0.1-0.3-0.3-0.6-0.5-0.9c-0.2-0.3-0.5-0.5-0.8-0.7
	c-0.4-0.2-0.9-0.3-1.3-0.3c-0.6,0-1.3,0.1-1.8,0.5c-0.5,0.3-0.7,0.7-0.7,1.3c0,0.4,0.2,0.8,0.5,1.1c0.5,0.3,1,0.6,1.6,0.7l2.1,0.5
	c1,0.2,1.9,0.6,2.7,1.3c0.6,0.6,0.9,1.4,0.9,2.3c0,0.8-0.2,1.5-0.7,2.1c-0.5,0.6-1.2,1.1-1.9,1.4c-0.9,0.4-1.9,0.6-2.9,0.5
	c-1.3,0.1-2.5-0.3-3.6-0.9c-0.9-0.6-1.6-1.6-1.7-2.7l2.5-0.4c0.1,0.6,0.5,1.1,1,1.5c0.6,0.3,1.2,0.5,1.9,0.5c0.7,0,1.4-0.2,2-0.5
	c0.5-0.3,0.7-0.8,0.8-1.3c0-0.4-0.2-0.8-0.5-1.1c-0.4-0.3-0.9-0.5-1.4-0.6l-2.2-0.5c-1-0.2-2-0.6-2.7-1.3c-0.6-0.6-0.9-1.5-0.9-2.3
	c0-0.7,0.2-1.4,0.7-2c0.5-0.6,1.1-1.1,1.8-1.4c0.8-0.3,1.7-0.5,2.6-0.5c1.2-0.1,2.4,0.3,3.4,0.9C279,169.3,279.6,170.2,279.8,171.1
	L279.8,171.1z M290.1,181.1h-2.8l6.4-17.6h3.1l6.3,17.6h-2.8l-5-14.4H295L290.1,181.1z M290.6,174.2h9.1v2.3h-9.2L290.6,174.2z
	 M310.2,186.4c-0.9,0-1.8-0.1-2.7-0.4c-0.7-0.2-1.3-0.6-1.8-1.1c-0.5-0.4-0.8-0.9-1.1-1.5l2.2-0.9c0.2,0.3,0.4,0.6,0.6,0.8
	c0.3,0.3,0.7,0.6,1.1,0.7c0.6,0.2,1.1,0.3,1.7,0.3c0.9,0,1.7-0.2,2.4-0.7c0.7-0.5,1.1-1.4,1-2.3v-2.6h-0.2c-0.2,0.3-0.4,0.6-0.7,0.9
	c-0.3,0.4-0.7,0.7-1.2,0.9c-0.6,0.3-1.3,0.4-2,0.4c-1,0-2-0.2-2.8-0.7c-0.9-0.5-1.6-1.3-2-2.2c-0.5-1.1-0.8-2.3-0.7-3.6
	c0-1.2,0.2-2.5,0.7-3.6c0.4-0.9,1.1-1.7,2-2.3c0.8-0.6,1.8-0.8,2.9-0.8c0.7,0,1.4,0.1,2,0.4c0.5,0.2,0.9,0.6,1.2,0.9
	c0.3,0.3,0.5,0.6,0.7,1h0.2v-2.2h2.5v13.6c0.1,2-1.1,3.8-2.9,4.4C312.3,186.3,311.3,186.4,310.2,186.4L310.2,186.4z M310.2,178.7
	c1.3,0.1,2.5-0.8,3-2c0.3-0.7,0.4-1.5,0.4-2.4c0-0.8-0.1-1.6-0.4-2.4c-0.2-0.6-0.6-1.2-1.2-1.6c-1.2-0.8-2.7-0.8-3.8,0
	c-0.5,0.4-0.9,1-1.2,1.6c-0.3,0.7-0.4,1.5-0.4,2.3c0,0.8,0.1,1.6,0.4,2.3C307.6,177.9,308.8,178.8,310.2,178.7L310.2,178.7z
	 M319.2,181.1v-13.2h2.5v2.1h0.1c0.2-0.7,0.7-1.3,1.3-1.7c0.6-0.4,1.3-0.6,2.1-0.6h0.6c0.2,0,0.4,0,0.5,0v2.5
	c-0.2,0-0.4-0.1-0.5-0.1c-0.3,0-0.5,0-0.8,0c-0.6,0-1.1,0.1-1.6,0.4c-1,0.5-1.6,1.5-1.5,2.6v8.1L319.2,181.1z M328.1,181.1v-13.2
	h2.6v13.2L328.1,181.1z M328.2,166.2l2-4h2.7l-2.7,4H328.2z M339.1,181.4c-1.1,0-2.3-0.3-3.3-0.9c-0.9-0.6-1.7-1.4-2.2-2.4
	c-0.5-1.1-0.8-2.3-0.7-3.5c0-1.2,0.2-2.4,0.8-3.6c0.5-1,1.2-1.8,2.2-2.4c1.8-1.1,4.1-1.2,6-0.3c0.8,0.3,1.4,0.9,1.9,1.5
	c0.5,0.7,0.8,1.5,0.9,2.4h-2.5c-0.1-0.6-0.5-1.2-1-1.6c-0.6-0.5-1.3-0.7-2-0.7c-0.7,0-1.3,0.2-1.9,0.6c-0.6,0.4-1,0.9-1.3,1.5
	c-0.3,0.8-0.5,1.6-0.4,2.4c0,0.9,0.1,1.7,0.4,2.6c0.3,0.6,0.7,1.2,1.2,1.6c1,0.6,2.2,0.8,3.2,0.3c0.4-0.2,0.7-0.4,1-0.8
	c0.3-0.4,0.5-0.8,0.6-1.2h2.5c-0.2,1.7-1.2,3.1-2.7,3.9C341,181.2,340,181.4,339.1,181.4L339.1,181.4z M352.4,181.4
	c-1.1,0-2.3-0.3-3.3-0.9c-0.9-0.6-1.7-1.4-2.2-2.4c-1-2.3-1-4.9,0-7.2c0.5-1,1.2-1.8,2.2-2.4c2-1.2,4.5-1.2,6.5,0
	c0.9,0.6,1.7,1.4,2.2,2.4c1,2.3,1,4.9,0,7.2c-0.5,1-1.2,1.8-2.2,2.4C354.7,181.1,353.5,181.4,352.4,181.4L352.4,181.4z M352.4,179.2
	c0.7,0,1.4-0.2,2-0.6c0.5-0.4,1-1,1.2-1.7c0.5-1.5,0.5-3.2,0-4.7c-0.2-0.7-0.6-1.3-1.2-1.7c-1.2-0.9-2.8-0.9-4,0
	c-0.5,0.5-1,1-1.2,1.7c-0.5,1.5-0.5,3.1,0,4.7c0.2,0.7,0.6,1.3,1.2,1.7C351,179,351.7,179.3,352.4,179.2z M363.6,163.5v17.6H361
	v-17.7L363.6,163.5z M370.4,181.4c-0.8,0-1.6-0.1-2.3-0.4c-0.7-0.3-1.2-0.8-1.6-1.4c-0.4-0.7-0.6-1.4-0.6-2.2c0-0.6,0.1-1.3,0.4-1.8
	c0.3-0.5,0.7-0.8,1.2-1.1c0.5-0.3,1.1-0.5,1.6-0.6c0.6-0.1,1.2-0.3,1.9-0.3l1.9-0.2c0.4,0,0.7-0.1,1.1-0.3c0.2-0.1,0.4-0.4,0.3-0.7
	v-0.1c0-0.6-0.2-1.3-0.6-1.7c-0.5-0.5-1.2-0.7-1.9-0.6c-1.3-0.1-2.5,0.6-3.1,1.8l-2.4-0.6c0.3-0.7,0.7-1.4,1.3-1.9
	c0.6-0.5,1.2-0.9,1.9-1.1c0.7-0.2,1.5-0.3,2.3-0.4c0.6,0,1.1,0.1,1.7,0.2c0.6,0.1,1.2,0.3,1.7,0.7c0.5,0.3,0.9,0.8,1.2,1.3
	c0.4,0.7,0.5,1.5,0.5,2.4v8.8h-2.5v-1.9h-0.1c-0.4,0.8-1.1,1.5-2,1.8C371.7,181.3,371,181.4,370.4,181.4L370.4,181.4z M371,179.4
	c0.6,0,1.3-0.1,1.8-0.4c0.5-0.3,0.9-0.6,1.2-1.1c0.3-0.4,0.4-1,0.4-1.5v-1.7c-0.2,0.1-0.3,0.2-0.5,0.3c-0.3,0.1-0.6,0.2-0.9,0.2
	l-1,0.1l-0.8,0.1c-0.5,0.1-0.9,0.2-1.4,0.3c-0.4,0.1-0.7,0.3-1,0.6c-0.6,0.8-0.4,1.9,0.3,2.6C369.6,179.2,370.3,179.4,371,179.4
	L371,179.4z M389.8,171.1l-2.3,0.4c-0.1-0.3-0.3-0.6-0.5-0.9c-0.2-0.3-0.5-0.5-0.8-0.7c-0.4-0.2-0.9-0.3-1.3-0.3
	c-0.6,0-1.3,0.1-1.8,0.5c-0.5,0.3-0.7,0.7-0.7,1.3c0,0.4,0.2,0.8,0.5,1.1c0.5,0.3,1,0.6,1.6,0.7l2.1,0.5c1,0.2,2,0.6,2.7,1.3
	c0.6,0.6,0.9,1.4,0.9,2.3c0,0.8-0.2,1.5-0.7,2.1c-0.5,0.6-1.2,1.1-1.9,1.4c-0.9,0.4-1.8,0.5-2.8,0.5c-1.3,0.1-2.5-0.3-3.6-0.9
	c-0.9-0.6-1.6-1.6-1.7-2.7l2.5-0.4c0.1,0.6,0.5,1.1,1,1.5c0.6,0.3,1.2,0.5,1.9,0.5c0.7,0,1.4-0.2,2-0.5c0.5-0.3,0.7-0.8,0.8-1.3
	c0-0.4-0.2-0.8-0.5-1.1c-0.4-0.3-0.9-0.6-1.4-0.6l-2.2-0.5c-1-0.2-2-0.6-2.8-1.3c-0.6-0.6-0.9-1.5-0.9-2.3c0-0.7,0.2-1.4,0.7-2
	c0.5-0.6,1.1-1.1,1.8-1.4c0.8-0.3,1.7-0.5,2.6-0.5c1.2-0.1,2.4,0.3,3.4,0.9C389,169.3,389.6,170.2,389.8,171.1L389.8,171.1z"/>
</svg>
