<svg width="125" height="26" viewBox="0 0 125 26" fill="none" xmlns="http://www.w3.org/2000/svg">
<path d="M35.1863 12.5523H41.1752V14.3201H35.1863V20.0581H33.3154V6.12891H42.4224V7.89487H35.1863V12.5523Z" fill="white"/>
<path d="M50.6052 12.0336H57.3826V13.7995H50.6052V18.2903H58.2758V20.0581H48.7344V6.12891H58.2758V7.89487H50.6052V12.0336Z" fill="white"/>
<path d="M66.5813 14.1952V20.0586H64.7104V6.12939H70.0533C72.4447 6.12939 74.898 7.43842 74.898 10.3093C74.898 12.9086 72.3605 14.2813 69.9503 14.2813C69.763 14.2813 69.5345 14.2813 69.2649 14.2607L76.0628 20.0605H73.1938L66.5832 14.197L66.5813 14.1952ZM66.5813 12.3655C67.497 12.6146 68.6188 12.7607 69.6787 12.7607C71.7781 12.7607 72.9841 11.8037 72.9841 10.3074C72.9841 8.81112 71.529 7.89536 69.7405 7.89536H66.5794V12.3655H66.5813Z" fill="white"/>
<path d="M88.3732 7.02279V8.95543C87.5829 8.37301 86.4387 7.7494 85.1503 7.7494C83.8618 7.7494 82.2607 8.39361 82.2607 9.88991C82.2607 11.0117 83.1764 11.4705 84.3188 11.9892L86.2308 12.8619C88.1429 13.7346 89.1204 14.6503 89.1204 16.3957C89.1204 18.6617 86.8956 20.2629 84.3394 20.2629C82.7382 20.2629 81.3449 19.6186 80.3468 18.9108V16.9781C81.4273 17.7272 82.8206 18.4332 84.5884 18.4332C85.9817 18.4332 87.2084 17.7047 87.2084 16.4781C87.2084 15.4388 86.0641 14.8563 85.2121 14.4818L82.9049 13.4424C80.9086 12.5492 80.3262 11.3843 80.3262 9.82436C80.3262 7.62018 82.4667 5.91602 84.9424 5.91602C86.5848 5.91602 87.5623 6.49843 88.3732 7.01717" fill="white"/>
<path d="M123.13 20.0586V9.87107L118.847 14.6521H118.307L113.92 9.87107V20.0586H112.049V6.12939H112.798L118.577 12.3243L124.253 6.12939H125V20.0586H123.13Z" fill="white"/>
<path d="M100.296 6.12891H99.3592L92.8516 20.0581H95.097L96.3105 17.324L97.3461 14.9644H97.3423L99.8593 9.28817L102.333 14.9644H99.5334L98.73 16.7322H103.103L104.558 20.0581H106.803L100.296 6.12891Z" fill="white"/>
<path d="M11.3027 6.81698C11.2912 7.59719 11.666 8.52808 12.7629 8.52808C13.8597 8.52808 14.2261 7.58648 14.2215 6.81698C14.2147 5.68033 13.3748 4.51079 12.7629 3.9853C12.1509 4.50773 11.3187 5.68263 11.3027 6.81698ZM10.2042 5.11736C10.9531 4.67448 12.0637 3.5906 12.2848 2.38511C12.4347 1.56895 12.2114 0.498081 11.0579 0.293851C9.89293 0.0873255 9.32078 1.00598 9.18615 1.8359C8.99034 3.04369 9.65275 4.4473 10.2042 5.11659V5.11736ZM16.3373 1.83667C16.2027 1.00674 15.6297 0.0880904 14.4655 0.294616C13.3121 0.498846 13.0887 1.56895 13.2386 2.38587C13.4597 3.59137 14.5711 4.67524 15.3192 5.11812C15.8707 4.44883 16.5331 3.04446 16.3373 1.83743V1.83667ZM14.2208 19.2337C14.2322 18.4535 13.8574 17.5226 12.7606 17.5226C11.6637 17.5226 11.2973 18.4642 11.3019 19.2337C11.3088 20.3704 12.1486 21.5399 12.7606 22.0654C13.3725 21.543 14.2047 20.3681 14.2208 19.2337ZM15.3192 20.9334C14.5703 21.3762 13.4597 22.4601 13.2386 23.6656C13.0887 24.4818 13.3121 25.5526 14.4655 25.7569C15.6305 25.9634 16.2027 25.0447 16.3373 24.2148C16.5331 23.007 15.8707 21.6034 15.3192 20.9341V20.9334ZM9.18615 24.214C9.32078 25.044 9.89369 25.9626 11.0579 25.7561C12.2114 25.5519 12.4347 24.4818 12.2848 23.6648C12.0637 22.4594 10.9523 21.3755 10.2042 20.9326C9.65275 21.6019 8.99034 23.0063 9.18615 24.2133V24.214ZM18.9693 11.5663C18.1891 11.5548 17.2582 11.9296 17.2582 13.0265C17.2582 14.1234 18.1998 14.4898 18.9693 14.4852C20.106 14.4783 21.2755 13.6384 21.801 13.0265C21.2786 12.4146 20.1037 11.5824 18.9693 11.5663ZM20.6689 10.4679C21.1118 11.2167 22.1957 12.3274 23.4012 12.5484C24.2174 12.6984 25.2882 12.475 25.4925 11.3215C25.699 10.1566 24.7803 9.58442 23.9504 9.4498C22.7426 9.25398 21.339 9.91639 20.6697 10.4679H20.6689ZM23.9496 16.6009C24.7796 16.4663 25.6982 15.8934 25.4917 14.7292C25.2875 13.5757 24.2174 13.3524 23.4004 13.5023C22.1949 13.7233 21.1111 14.8347 20.6682 15.5828C21.3375 16.1343 22.7418 16.7967 23.9489 16.6009H23.9496ZM6.55258 14.4844C7.33278 14.4959 8.26368 14.1211 8.26368 13.0242C8.26368 11.9273 7.32207 11.5609 6.55258 11.5655C5.41593 11.5724 4.24638 12.4123 3.72089 13.0242C4.24332 13.6361 5.41822 14.4684 6.55258 14.4844ZM4.85295 15.5828C4.41007 14.834 3.3262 13.7233 2.1207 13.5023C1.30455 13.3524 0.233677 13.5757 0.0294463 14.7292C-0.177079 15.8941 0.741575 16.4663 1.5715 16.6009C2.77929 16.7967 4.18289 16.1343 4.85219 15.5828H4.85295ZM1.57379 9.4498C0.74387 9.58442 -0.174784 10.1573 0.0317411 11.3215C0.235971 12.475 1.30608 12.6984 2.123 12.5484C3.32849 12.3274 4.41237 11.216 4.85525 10.4679C4.18595 9.91639 2.78158 9.25398 1.57456 9.4498H1.57379ZM16.12 7.60407C15.5601 8.14792 15.167 9.07117 15.9426 9.84678C16.7113 10.6155 17.643 10.2155 18.1838 9.6678C18.9831 8.85852 19.2164 7.43809 19.1544 6.63417C18.3528 6.57068 16.9331 6.81316 16.1193 7.60407H16.12ZM16.5453 5.62526C17.3875 5.84173 18.9395 5.86085 19.9484 5.16478C20.6315 4.6936 21.2312 3.77877 20.5596 2.81881C19.8819 1.84967 18.8278 2.09368 18.1455 2.58551C17.1534 3.3007 16.6287 4.76244 16.5453 5.62526ZM23.2023 7.64232C23.6942 6.96002 23.9389 5.90598 22.969 5.22827C22.0091 4.55668 21.0942 5.15637 20.6231 5.83943C19.927 6.84835 19.9461 8.40034 20.1626 9.24251C21.0254 9.15913 22.4871 8.63441 23.2023 7.64232ZM9.40492 18.4466C9.96483 17.9028 10.358 16.9795 9.58238 16.2039C8.81364 15.4352 7.88199 15.8352 7.3412 16.3829C6.54187 17.1922 6.30857 18.6126 6.37053 19.4165C7.17215 19.48 8.59182 19.2376 9.40568 18.4466H9.40492ZM8.97963 20.4255C8.13747 20.209 6.58547 20.1899 5.57656 20.8859C4.89349 21.3571 4.29381 22.2719 4.96539 23.2319C5.6431 24.201 6.69714 23.957 7.37944 23.4652C8.37153 22.75 8.89625 21.2883 8.97963 20.4255ZM2.32264 18.4084C1.8308 19.0907 1.58603 20.1447 2.55594 20.8224C3.51589 21.494 4.43072 20.8943 4.90191 20.2113C5.59797 19.2024 5.57885 17.6504 5.36238 16.8082C4.49957 16.8916 3.03783 17.4163 2.32264 18.4084ZM7.3412 9.66703C7.88505 10.2269 8.80829 10.6201 9.58391 9.84449C10.3526 9.07576 9.95259 8.1441 9.40492 7.60331C8.59565 6.80398 7.17521 6.57068 6.37129 6.63264C6.30781 7.43427 6.55028 8.85393 7.3412 9.6678V9.66703ZM5.36238 9.24174C5.57885 8.39958 5.59797 6.84758 4.90191 5.83867C4.43072 5.1556 3.51589 4.55592 2.55594 5.22751C1.5868 5.90521 1.8308 6.95926 2.32264 7.64156C3.03783 8.63364 4.49957 9.15837 5.36238 9.24174ZM7.37944 2.58475C6.69714 2.09291 5.6431 1.84814 4.96539 2.81805C4.29381 3.77801 4.89349 4.69284 5.57656 5.16402C6.58547 5.86009 8.13747 5.84096 8.97963 5.62449C8.89625 4.76168 8.37153 3.29994 7.37944 2.58475ZM18.1845 16.3822C17.6407 15.8222 16.7174 15.4291 15.9418 16.2047C15.1662 16.9803 15.5731 17.9051 16.1208 18.4459C16.9301 19.2452 18.3505 19.4785 19.1544 19.4165C19.2179 18.6149 18.9754 17.1953 18.1845 16.3814V16.3822ZM20.1633 16.8074C19.9469 17.6496 19.9278 19.2016 20.6238 20.2105C21.095 20.8936 22.0098 21.4933 22.9698 20.8217C23.9389 20.144 23.6949 19.0899 23.2031 18.4076C22.4879 17.4155 21.0262 16.8908 20.1633 16.8074ZM18.1463 23.4644C18.8286 23.9563 19.8826 24.201 20.5603 23.2311C21.2319 22.2712 20.6322 21.3564 19.9492 20.8852C18.9403 20.1891 17.3883 20.2082 16.5461 20.4247C16.6295 21.2875 17.1542 22.7492 18.1463 23.4644Z" fill="white"/>
</svg>
